<svg width="24" height="24" viewBox="0 0 24 24" fill="none" xmlns="http://www.w3.org/2000/svg">
<path opacity="0.5" d="M17 11.0001C17.34 11.0001 17.67 11.0401 18 11.0901V7.58006C18 6.78006 17.53 6.06006 16.8 5.75006L11.3 3.35006C10.79 3.13006 10.21 3.13006 9.7 3.35006L4.2 5.75006C3.47 6.07006 3 6.79006 3 7.58006V11.1801C3 15.7201 6.2 19.9701 10.5 21.0001C11.05 20.8701 11.58 20.6801 12.1 20.4501C11.41 19.4701 11 18.2801 11 17.0001C11 13.6901 13.69 11.0001 17 11.0001Z" fill="#2173FF"/>
<path d="M16.999 13C14.789 13 12.999 14.79 12.999 17C12.999 19.21 14.789 21 16.999 21C19.209 21 20.999 19.21 20.999 17C20.999 14.79 19.209 13 16.999 13ZM16.999 14.38C17.619 14.38 18.119 14.89 18.119 15.5C18.119 16.11 17.609 16.62 16.999 16.62C16.389 16.62 15.879 16.11 15.879 15.5C15.879 14.89 16.379 14.38 16.999 14.38ZM16.999 19.75C16.069 19.75 15.259 19.29 14.759 18.58C14.809 17.86 16.269 17.5 16.999 17.5C17.729 17.5 19.189 17.86 19.239 18.58C18.739 19.29 17.929 19.75 16.999 19.75Z" fill="#2173FF"/>
</svg>
