<svg width="24" height="24" viewBox="0 0 24 24" fill="none" xmlns="http://www.w3.org/2000/svg">
<path d="M20.6825 20.2725L3.7025 3.2925C3.3125 2.9025 2.6825 2.9025 2.2925 3.2925C1.9025 3.6825 1.9025 4.3125 2.2925 4.7025L10.4725 12.8825C8.6525 13.1125 7.0625 13.6825 5.7725 14.3425C4.7925 14.8625 4.1925 15.8925 4.1925 17.0025V19.7825H17.3625L19.2625 21.6825C19.6525 22.0725 20.2825 22.0725 20.6725 21.6825C21.0725 21.2925 21.0725 20.6625 20.6825 20.2725Z" fill="#2173FF" fill-opacity="0.5"/>
<path d="M8.84253 5.60247C9.55253 4.50247 10.7925 3.78247 12.1925 3.78247C14.4025 3.78247 16.1925 5.57247 16.1925 7.78247C16.1925 9.18247 15.4725 10.4225 14.3725 11.1325L8.84253 5.60247ZM20.1925 16.9525C20.1725 15.8525 19.5625 14.8425 18.5825 14.3325C18.0425 14.0525 17.4525 13.7925 16.8125 13.5725L20.1925 16.9525Z" fill="#2173FF"/>
</svg>
