<svg width="24" height="24" viewBox="0 0 24 24" fill="none" xmlns="http://www.w3.org/2000/svg">
<path d="M20 6H12L10.59 4.59C10.21 4.21 9.7 4 9.17 4H4C2.9 4 2.01 4.9 2.01 6L2 18C2 19.1 2.9 20 4 20H20C21.1 20 22 19.1 22 18V8C22 6.9 21.1 6 20 6ZM19 18H5C4.45 18 4 17.55 4 17V9C4 8.45 4.45 8 5 8H19C19.55 8 20 8.45 20 9V17C20 17.55 19.55 18 19 18Z" fill="#2173FF" fill-opacity="0.5"/>
<path d="M11 14H7C6.45 14 6 14.45 6 15C6 15.55 6.45 16 7 16H11C11.55 16 12 15.55 12 15C12 14.45 11.55 14 11 14ZM7 12H17C17.55 12 18 11.55 18 11C18 10.45 17.55 10 17 10H7C6.45 10 6 10.45 6 11C6 11.55 6.45 12 7 12Z" fill="#2173FF"/>
</svg>
