<svg width="24" height="24" viewBox="0 0 24 24" fill="none" xmlns="http://www.w3.org/2000/svg">
<path d="M11 19L11 15C11 13.9 10.1 13 9 13L5 13C3.9 13 3 13.9 3 15L3 19C3 20.1 3.9 21 5 21L9 21C10.1 21 11 20.1 11 19Z" fill="#ffffff"/>
<path d="M21 19L21 15C21 13.9 20.1 13 19 13L15 13C13.9 13 13 13.9 13 15L13 19C13 20.1 13.9 21 15 21L19 21C20.1 21 21 20.1 21 19Z" fill="#ffffff"/>
<path d="M5 11L9 11C10.1 11 11 10.1 11 9L11 5C11 3.9 10.1 3 9 3L5 3C3.9 3 3 3.9 3 5L3 9C3 10.1 3.9 11 5 11Z" fill="#ffffff"/>
<path d="M21 9L21 5C21 3.9 20.1 3 19 3L15 3C13.9 3 13 3.9 13 5L13 9C13 10.1 13.9 11 15 11L19 11C20.1 11 21 10.1 21 9Z" fill="#ffffff"/>
</svg>
