<svg width="24" height="24" viewBox="0 0 24 24" fill="none" xmlns="http://www.w3.org/2000/svg">
<path fill-rule="evenodd" clip-rule="evenodd" d="M17 8C16.4477 8 16 8.44772 16 9V19C16 19.5523 16.4477 20 17 20H23C23.5523 20 24 19.5523 24 19V9C24 8.44772 23.5523 8 23 8H17ZM22 10H18V17H22V10Z" fill="white"/>
<path d="M4 7C4 6.45 4.45 6 5 6H21C21.55 6 22 5.55 22 5C22 4.45 21.55 4 21 4H4C2.9 4 2 4.9 2 6V17H1.5C0.67 17 0 17.67 0 18.5C0 19.33 0.67 20 1.5 20H14V17H4V7Z" fill="white" fill-opacity="0.5"/>
</svg>
