<svg width="24" height="25" viewBox="0 0 24 25" fill="none" xmlns="http://www.w3.org/2000/svg">
<path d="M21 12.4609V15.4609C21.0004 15.658 20.9619 15.8533 20.8866 16.0354C20.8114 16.2176 20.7009 16.3831 20.5615 16.5225C20.4222 16.6618 20.2567 16.7723 20.0745 16.8476C19.8923 16.9228 19.6971 16.9613 19.5 16.9609H15L12 22.2109L13.302 22.9609L15.8738 18.4609H19.5C20.2956 18.4609 21.0587 18.1449 21.6213 17.5823C22.1839 17.0196 22.5 16.2566 22.5 15.4609V12.4609H21Z" fill="#2173FF"/>
<path d="M3 15.4609V6.46094C2.9996 6.26384 3.03813 6.06861 3.11338 5.88645C3.18862 5.70428 3.29909 5.53876 3.43846 5.3994C3.57783 5.26003 3.74334 5.14956 3.92551 5.07431C4.10767 4.99907 4.30291 4.96054 4.5 4.96094H13.5V3.46094H4.5C4.10601 3.46084 3.71585 3.53837 3.35183 3.6891C2.98781 3.83983 2.65706 4.0608 2.37846 4.3394C2.09986 4.61799 1.87889 4.94875 1.72816 5.31277C1.57743 5.67679 1.4999 6.06694 1.5 6.46094V15.4609C1.5 16.2566 1.81607 17.0196 2.37868 17.5823C2.94129 18.1449 3.70435 18.4609 4.5 18.4609H11.25V16.9609H4.5C4.30291 16.9613 4.10767 16.9228 3.92551 16.8476C3.74334 16.7723 3.57783 16.6618 3.43846 16.5225C3.29909 16.3831 3.18862 16.2176 3.11338 16.0354C3.03813 15.8533 2.9996 15.658 3 15.4609Z" fill="#2173FF"/>
<path d="M16.5 12.4609L12.4688 8.61714L13.5293 7.55664L16.5 10.3391L21.4864 5.54102L22.5469 6.60152L16.5 12.4609Z" fill="#2173FF"/>
</svg>
