<svg width="24" height="24" viewBox="0 0 24 24" fill="none" xmlns="http://www.w3.org/2000/svg">
<path d="M2 21H12C12.55 21 13 21.45 13 22C13 22.55 12.55 23 12 23H2C1.45 23 1 22.55 1 22C1 21.45 1.45 21 2 21ZM5.24 8.06999L8.07 5.23999L20.8 17.97C21.58 18.75 21.58 20.02 20.8 20.8C20.02 21.58 18.75 21.58 17.97 20.8L5.24 8.06999Z" fill="white" fill-opacity="0.5"/>
<path d="M13.73 2.40993L16.56 5.23993C17.34 6.01993 17.34 7.28993 16.56 8.06993L15.14 9.48993L9.48996 3.82993L10.9 2.41993C11.68 1.62993 12.95 1.62993 13.73 2.40993ZM3.82996 9.47993L9.48996 15.1399L8.07996 16.5499C7.29996 17.3299 6.02996 17.3299 5.24996 16.5499L2.41996 13.7199C1.63996 12.9399 1.63996 11.6699 2.41996 10.8899L3.82996 9.47993Z" fill="white"/>
</svg>
