<svg width="40" height="41" viewBox="0 0 40 41" fill="none" xmlns="http://www.w3.org/2000/svg">
<path d="M15.2081 7.10867C16.7011 6.54133 18.2837 6.27259 19.8961 6.24273V5.04834C18.1642 5.04834 16.4324 5.3768 14.8199 5.974L15.2081 7.10867Z" fill="white"/>
<path fill-rule="evenodd" clip-rule="evenodd" d="M15.0197 7.50985L14.4312 5.78943L14.7129 5.68507C16.3577 5.07589 18.1257 4.74023 19.8961 4.74023H20.2042V6.54518L19.9018 6.55078C18.3198 6.58008 16.7729 6.84364 15.3176 7.39668L15.0197 7.50985ZM19.588 5.05179C19.6907 5.04949 19.7934 5.04834 19.8961 5.04834V6.24273C18.3875 6.27067 16.905 6.50772 15.4975 7.0028C15.4007 7.03686 15.3042 7.07215 15.2081 7.10867L14.8199 5.97399C16.3367 5.41221 17.9592 5.08824 19.588 5.05179Z" fill="white"/>
<path d="M5.80232 19.0228L6.28007 18.9631L6.3398 18.4853C6.69811 15.3501 8.04181 12.5134 10.2813 10.2739C10.9382 9.61697 11.6548 9.04963 12.4013 8.54202L11.7444 7.55664C10.9083 8.09412 10.132 8.75103 9.44522 9.43781C7.17587 11.7072 5.68288 14.6931 5.23498 17.8881C3.951 18.0673 2.72675 18.4256 1.53236 18.9034C1.68166 16.3056 2.39829 13.7376 3.59269 11.4384L2.54759 10.8711C1.11432 13.6182 0.337965 16.7236 0.308105 19.829V20.8144L1.17404 20.3665C2.60731 19.6499 4.16003 19.202 5.80232 19.0228Z" fill="white"/>
<path fill-rule="evenodd" clip-rule="evenodd" d="M5.83813 19.3288L5.83573 19.329C4.2288 19.5043 2.71226 19.9421 1.31369 20.6411L0 21.3206V19.8275L1.42508e-05 19.826C0.0303405 16.6721 0.818611 13.5188 2.27443 10.7285L2.41931 10.4508L4.00557 11.3119L3.8661 11.5804C2.76503 13.6999 2.07691 16.0517 1.87411 18.4412C2.87229 18.0701 3.89692 17.7837 4.96369 17.6168C5.45878 14.4417 6.96494 11.4823 9.22735 9.21988C9.92613 8.52111 10.7194 7.84923 11.5778 7.2974L11.8327 7.13354L12.827 8.62506L12.5746 8.79673C11.8404 9.29595 11.1396 9.85125 10.4992 10.4917C8.30994 12.6809 6.99649 15.4527 6.64591 18.5203L6.64572 18.5219L6.55607 19.239L5.83813 19.3288ZM5.23498 17.8881C5.68287 14.6931 7.17587 11.7071 9.44522 9.43774C10.132 8.75097 10.9083 8.09405 11.7444 7.55657L12.4013 8.54195C11.6548 9.04956 10.9382 9.6169 10.2813 10.2738C8.0418 12.5133 6.69811 15.35 6.33979 18.4853L6.28007 18.963L5.80232 19.0228C4.16002 19.2019 2.60731 19.6498 1.17404 20.3664L0.308104 20.8143V19.829C0.336974 16.8265 1.06366 13.824 2.40722 11.1454C2.45328 11.0535 2.50008 10.9621 2.54759 10.871L3.59268 11.4384C2.45049 13.6371 1.74521 16.0816 1.55517 18.5629C1.54649 18.6763 1.53888 18.7898 1.53236 18.9033C1.63754 18.8612 1.74296 18.8201 1.84863 18.7799C2.94285 18.3638 4.06408 18.0515 5.23498 17.8881Z" fill="white"/>
<path d="M6.87733 6.89967C14.1034 -0.296557 25.8682 -0.296557 33.0644 6.89967C34.7067 8.54196 36.0205 10.4828 36.9462 12.6029L38.051 12.1251C37.0656 9.85579 35.6622 7.82532 33.9005 6.06359C26.2265 -1.61039 13.7152 -1.61039 6.04126 6.06359C5.38434 6.72051 4.75728 7.43714 4.18994 8.18364L5.14546 8.90028C5.68294 8.2135 6.28013 7.52672 6.87733 6.89967Z" fill="white"/>
<path fill-rule="evenodd" clip-rule="evenodd" d="M36.9461 12.6029C36.0205 10.4828 34.7066 8.54196 33.0644 6.89967C25.8681 -0.296557 14.1033 -0.296557 6.87727 6.89967C6.28007 7.52672 5.68288 8.2135 5.1454 8.90028L4.18988 8.18364C4.25195 8.10197 4.31473 8.02066 4.37819 7.93974C4.89478 7.28105 5.45615 6.64864 6.04119 6.06359C13.7152 -1.61039 26.2264 -1.61039 33.9004 6.06359C35.589 7.75212 36.9483 9.68753 37.926 11.8435C37.9683 11.937 38.01 12.0308 38.0509 12.1251L38.0507 12.1253L36.9461 12.6029ZM7.09757 7.1151C14.2039 0.0412292 25.7718 0.0428371 32.8465 7.11753C34.4611 8.73214 35.7533 10.6408 36.6638 12.7262L36.7866 13.0076L38.4565 12.2855L38.3336 12.0024C37.3321 9.69606 35.9062 7.63364 34.1183 5.84573C26.324 -1.94858 13.6176 -1.94858 5.82333 5.84573C5.1567 6.51236 4.52045 7.23948 3.94458 7.99721L3.75696 8.24408L5.20201 9.32786L5.38803 9.09016C5.91814 8.4128 6.50773 7.73462 7.09757 7.1151Z" fill="white"/>
<path d="M39.1558 15.4695L37.9913 15.7382C39.4843 22.0386 37.633 28.5182 33.0644 33.0868C29.8396 36.3117 25.5995 38.2227 21.0608 38.4914C21.5684 37.297 21.8968 36.0728 22.076 34.7888C25.271 34.3409 28.2271 32.8479 30.5263 30.5786L29.6903 29.7425C27.4508 31.982 24.6141 33.3257 21.4788 33.684L21.001 33.7437L20.9413 34.2215C20.7622 35.8638 20.2844 37.4165 19.5678 38.8796L19.1199 39.7455H20.1052C25.3009 39.7157 30.1979 37.6553 33.9005 33.9826C38.7677 29.0856 40.7384 22.1581 39.1558 15.4695Z" fill="white"/>
<path fill-rule="evenodd" clip-rule="evenodd" d="M39.385 15.1003L39.4556 15.3985C41.0628 22.1916 39.0606 29.2278 34.1189 34.1998L34.1181 34.2005L34.1174 34.2013C30.3584 37.93 25.3844 40.0233 20.1069 40.0536L20.1051 40.0536L18.6135 40.0536L19.2924 38.741C19.994 37.3079 20.4601 35.7906 20.6349 34.188L20.6352 34.1856L20.7249 33.4677L21.4421 33.378L21.4437 33.3779C24.5113 33.0273 27.2831 31.7138 29.4723 29.5246L29.6902 29.3067L30.9634 30.58L30.7427 30.7978C28.4526 33.0581 25.5222 34.5647 22.3475 35.06C22.1839 36.122 21.9176 37.1463 21.5319 38.1483C25.8097 37.7801 29.7909 35.9245 32.8465 32.8689C37.3397 28.3757 39.1597 22.0053 37.6914 15.8092L37.6199 15.5077L39.385 15.1003ZM21.4045 38.4679C21.2901 38.4768 21.1755 38.4846 21.0607 38.4914C21.1055 38.386 21.1489 38.2803 21.1909 38.1744C21.6251 37.0804 21.9125 35.9594 22.0759 34.7888C25.1692 34.3551 28.0387 32.9418 30.3048 30.7928C30.3792 30.7222 30.4531 30.6507 30.5262 30.5785L29.6902 29.7425C27.4507 31.982 24.614 33.3256 21.4787 33.684L21.0009 33.7437L20.9412 34.2214C20.7621 35.8637 20.2843 37.4164 19.5677 38.8796L19.1198 39.7455H20.1051C25.3008 39.7157 30.1978 37.6553 33.9004 33.9826C38.6947 29.1588 40.6787 22.3649 39.2244 15.7698C39.2183 15.7422 39.2121 15.7145 39.2059 15.6869C39.1896 15.6144 39.1729 15.5419 39.1557 15.4695L37.9912 15.7382C38.0084 15.8109 38.0252 15.8837 38.0416 15.9565C39.4411 22.188 37.5801 28.571 33.0643 33.0868C29.921 36.23 25.8132 38.1251 21.4045 38.4679Z" fill="white"/>
<path d="M32.8553 27.5924C36.319 21.7399 35.3635 14.2749 30.5561 9.43765C28.4958 7.37732 25.898 5.97391 23.0613 5.37671L22.8224 6.54124C25.4501 7.07872 27.809 8.36269 29.72 10.2737C34.1691 14.7228 35.0351 21.5607 31.8401 26.9654L32.8553 27.5924Z" fill="white"/>
<path fill-rule="evenodd" clip-rule="evenodd" d="M32.9605 28.0196L31.4211 27.0688L31.5748 26.8087C34.6981 21.5253 33.852 14.8415 29.5021 10.4916C27.6329 8.62238 25.3279 7.36828 22.7606 6.84316L22.4586 6.78138L22.8217 5.01147L23.1247 5.07528C26.0198 5.68477 28.6713 7.11719 30.7739 9.21985L30.7746 9.22052C35.6801 14.1565 36.6563 21.775 33.1204 27.7494L32.9605 28.0196ZM30.5561 9.43771C28.5688 7.45044 26.0815 6.07433 23.3621 5.44334C23.2622 5.42014 23.1619 5.39795 23.0613 5.37677L22.8224 6.54131C22.8274 6.54233 22.8324 6.54337 22.8375 6.5444C25.4591 7.0837 27.8126 8.36641 29.72 10.2738C34.1691 14.7229 35.0351 21.5608 31.8401 26.9654L32.8553 27.5925C32.9077 27.5039 32.9591 27.4149 33.0095 27.3256C36.2892 21.5146 35.2907 14.2018 30.5561 9.43771Z" fill="white"/>
<path d="M26.3159 26.3383C24.0764 28.5778 21.2397 29.8916 17.8058 30.2798L17.3579 30.3395L17.2982 30.7874C16.9996 32.9075 16.1635 35.9233 13.8345 38.7302C14.2525 38.8496 14.6706 38.9989 15.0587 39.0885C17.1788 36.3712 18.0447 33.5345 18.403 31.4145C21.8966 30.9367 24.8229 29.5333 27.152 27.2043C29.063 25.2932 30.3768 22.9044 31.0337 20.1872L29.8692 19.9185C29.272 22.3968 28.0776 24.5766 26.3159 26.3383Z" fill="white"/>
<path fill-rule="evenodd" clip-rule="evenodd" d="M17.7683 29.974L17.7713 29.9736C21.1426 29.5925 23.9126 28.306 26.0981 26.1204C27.8178 24.4007 28.9852 22.2721 29.5698 19.8462L29.6413 19.5496L31.4065 19.9569L31.3333 20.2595C30.6638 23.0291 29.323 25.469 27.3699 27.4221C25.0395 29.7525 22.125 31.1731 18.668 31.6878C18.2814 33.8171 17.3882 36.6038 15.3018 39.2779L15.1809 39.4328L14.9896 39.3886C14.7366 39.3302 14.458 39.2434 14.1886 39.1594C14.0374 39.1123 13.8892 39.0661 13.7499 39.0263L13.296 38.8967L13.5975 38.5333C15.879 35.7839 16.6996 32.8282 16.9931 30.7455C16.9931 30.7451 16.9932 30.7448 16.9932 30.7444L17.0838 30.0652L17.7683 29.974ZM17.2983 30.7874C17.0089 32.8422 16.2146 35.7386 14.0453 38.4706C13.9764 38.5573 13.9062 38.6438 13.8346 38.7301C13.9414 38.7606 14.0483 38.7931 14.1546 38.826C14.2031 38.841 14.2515 38.8561 14.2997 38.8712C14.5596 38.9524 14.8151 39.0322 15.0588 39.0884C17.1789 36.3712 18.0448 33.5345 18.4031 31.4144C21.8968 30.9367 24.823 29.5333 27.1521 27.2042C28.9927 25.3635 30.2794 23.0797 30.9586 20.486C30.9846 20.3868 31.0097 20.2872 31.0339 20.1872C31.0338 20.1872 31.0339 20.1872 31.0339 20.1872L29.8693 19.9184C29.2721 22.3968 28.0777 24.5765 26.316 26.3383C24.0765 28.5777 21.2398 29.8916 17.806 30.2798L17.3581 30.3395L17.2983 30.7874Z" fill="white"/>
<path d="M19.8663 8.90039C17.1192 9.55731 14.7304 10.8711 12.7895 12.812C10.4604 15.1411 9.05701 18.0674 8.57926 21.561C6.42935 21.9193 3.62252 22.7852 0.905273 24.9053C1.02471 25.3233 1.14415 25.7413 1.26359 26.1295C4.07042 23.8005 7.08626 22.9644 9.20631 22.6658L9.65421 22.6061L9.71393 22.1582C10.1021 18.7541 11.4159 15.8876 13.6554 13.6481C15.4172 11.8864 17.6268 10.6621 20.1649 10.0649L19.8663 8.90039Z" fill="white"/>
<path fill-rule="evenodd" clip-rule="evenodd" d="M20.0894 8.53003L20.5413 10.2926L20.2354 10.3646C17.7512 10.9491 15.5931 12.1459 13.8732 13.8658C11.688 16.051 10.4011 18.8506 10.02 22.1929L10.0196 22.1958L9.9284 22.8801L9.24921 22.9707C9.24881 22.9707 9.2484 22.9708 9.248 22.9708C7.16534 23.2643 4.20972 24.085 1.46027 26.3664L1.10486 26.6613L0.969042 26.2199C0.848703 25.8288 0.728575 25.4084 0.6095 24.9916L0.55188 24.7899L0.715677 24.6621C3.39038 22.5753 6.1501 21.6819 8.30586 21.2954C8.8207 17.8386 10.2412 14.9243 12.5716 12.594C14.5544 10.6111 16.9945 9.27012 19.7945 8.60053L20.0894 8.53003ZM8.57919 21.5608C6.42928 21.9191 3.62245 22.785 0.905204 24.9051C0.992464 25.2105 1.07975 25.516 1.16701 25.8097C1.19918 25.918 1.23135 26.0248 1.26352 26.1293C1.34939 26.0581 1.43545 25.9882 1.52167 25.9197C4.25403 23.7496 7.15105 22.955 9.20624 22.6656L9.65414 22.6059L9.71386 22.158C10.102 18.7539 11.4159 15.8874 13.6554 13.6479C15.3475 11.9557 17.4529 10.7595 19.8656 10.1384C19.9648 10.1129 20.0646 10.0883 20.1648 10.0647L19.8662 8.90018C17.1191 9.5571 14.7303 10.8709 12.7894 12.8118C10.4604 15.1409 9.05694 18.0672 8.57919 21.5608Z" fill="white"/>
<path fill-rule="evenodd" clip-rule="evenodd" d="M26.8535 12.6326L27.2417 12.7222L27.3313 13.1104C27.3324 13.119 27.3349 13.1349 27.3384 13.1577C27.4336 13.7635 28.296 19.2523 23.778 23.7703C20.6427 26.9056 16.9998 27.4431 14.8797 27.4431H14.8797C14.5214 27.4431 14.193 27.4431 13.9242 27.4132C14.0437 29.175 13.9839 33.5046 10.3709 37.1774C10.1917 37.0729 10.02 36.9684 9.84836 36.8639C9.67666 36.7594 9.50497 36.6549 9.32581 36.5503C6.77838 35.0643 4.5035 32.3509 3.41356 30.6381C3.20454 30.3096 2.99552 29.9513 2.7865 29.593C6.48912 25.98 10.7889 25.8904 12.5507 26.0397C12.4014 24.2779 12.491 19.8885 16.1936 16.1859C20.8517 11.4979 26.6147 12.5729 26.8535 12.6326ZM24.5544 16.6338C24.5544 17.2935 24.0197 17.8282 23.36 17.8282C22.7004 17.8282 22.1656 17.2935 22.1656 16.6338C22.1656 15.9742 22.7004 15.4394 23.36 15.4394C24.0197 15.4394 24.5544 15.9742 24.5544 16.6338Z" fill="white"/>
</svg>
