<svg width="32" height="33" viewBox="0 0 32 33" fill="none" xmlns="http://www.w3.org/2000/svg">
<path d="M2 22.9355H30V24.9355H2V22.9355Z" fill="#141A39"/>
<path d="M2 26.9355H30V28.9355H2V26.9355Z" fill="#141A39"/>
<path d="M24 10.9355C23.6044 10.9355 23.2178 11.0528 22.8889 11.2726C22.56 11.4924 22.3036 11.8047 22.1522 12.1702C22.0009 12.5356 21.9613 12.9378 22.0384 13.3257C22.1156 13.7137 22.3061 14.0701 22.5858 14.3498C22.8655 14.6295 23.2219 14.8199 23.6098 14.8971C23.9978 14.9743 24.3999 14.9347 24.7654 14.7833C25.1308 14.6319 25.4432 14.3756 25.6629 14.0467C25.8827 13.7178 26 13.3311 26 12.9355C26 12.4051 25.7893 11.8964 25.4142 11.5213C25.0391 11.1463 24.5304 10.9355 24 10.9355Z" fill="#141A39"/>
<path d="M16 16.9355C15.2089 16.9355 14.4355 16.701 13.7777 16.2614C13.1199 15.8219 12.6072 15.1972 12.3045 14.4663C12.0017 13.7354 11.9225 12.9311 12.0769 12.1552C12.2312 11.3793 12.6122 10.6665 13.1716 10.1071C13.731 9.54771 14.4437 9.16675 15.2196 9.01241C15.9956 8.85807 16.7998 8.93728 17.5307 9.24003C18.2616 9.54278 18.8864 10.0555 19.3259 10.7133C19.7654 11.3711 20 12.1444 20 12.9355C19.9987 13.996 19.5768 15.0127 18.827 15.7625C18.0771 16.5124 17.0605 16.9342 16 16.9355ZM16 10.9355C15.6044 10.9355 15.2178 11.0528 14.8889 11.2726C14.56 11.4924 14.3036 11.8047 14.1522 12.1702C14.0009 12.5356 13.9613 12.9378 14.0384 13.3257C14.1156 13.7137 14.3061 14.0701 14.5858 14.3498C14.8655 14.6295 15.2219 14.8199 15.6098 14.8971C15.9978 14.9743 16.3999 14.9347 16.7654 14.7833C17.1308 14.6319 17.4432 14.3756 17.6629 14.0467C17.8827 13.7178 18 13.3311 18 12.9355C17.9995 12.4053 17.7886 11.8969 17.4136 11.5219C17.0387 11.147 16.5303 10.9361 16 10.9355Z" fill="#141A39"/>
<path d="M8 10.9355C7.60444 10.9355 7.21776 11.0528 6.88886 11.2726C6.55996 11.4924 6.30362 11.8047 6.15224 12.1702C6.00087 12.5356 5.96126 12.9378 6.03843 13.3257C6.1156 13.7137 6.30608 14.0701 6.58579 14.3498C6.86549 14.6295 7.22186 14.8199 7.60982 14.8971C7.99778 14.9743 8.39992 14.9347 8.76537 14.7833C9.13082 14.6319 9.44318 14.3756 9.66294 14.0467C9.8827 13.7178 10 13.3311 10 12.9355C10 12.4051 9.78929 11.8964 9.41421 11.5213C9.03914 11.1463 8.53043 10.9355 8 10.9355Z" fill="#141A39"/>
<path d="M28 20.9355H4C3.46997 20.9342 2.96203 20.7231 2.58724 20.3483C2.21246 19.9735 2.00132 19.4656 2 18.9355V6.93555C2.00132 6.40552 2.21246 5.89758 2.58724 5.52279C2.96203 5.148 3.46997 4.93687 4 4.93555H28C28.53 4.93687 29.038 5.148 29.4128 5.52279C29.7875 5.89758 29.9987 6.40552 30 6.93555V18.9355C29.9992 19.4657 29.7882 19.974 29.4133 20.3489C29.0384 20.7238 28.5302 20.9348 28 20.9355ZM28 6.93555H4V18.9355H28V6.93555Z" fill="#141A39"/>
</svg>
