<svg width="32" height="32" viewBox="0 0 32 32" fill="none" xmlns="http://www.w3.org/2000/svg">
<path d="M2 28H30V30H2V28Z" fill="#141A39"/>
<path d="M27 10.9996C27.2652 10.9996 27.5196 10.8942 27.7071 10.7067C27.8946 10.5191 28 10.2648 28 9.99957V6.99957C27.9999 6.79406 27.9365 6.59356 27.8184 6.42537C27.7003 6.25717 27.5333 6.12945 27.34 6.05957L16.34 2.05957C16.1203 1.98014 15.8797 1.98014 15.66 2.05957L4.66 6.05957C4.46673 6.12945 4.29968 6.25717 4.18159 6.42537C4.06349 6.59356 4.00009 6.79406 4 6.99957V9.99957C4 10.2648 4.10536 10.5191 4.29289 10.7067C4.48043 10.8942 4.73478 10.9996 5 10.9996H6V23.9996H4V25.9996H28V23.9996H26V10.9996H27ZM6 7.69957L16 4.05957L26 7.69957V8.99957H6V7.69957ZM18 23.9996H14V10.9996H18V23.9996ZM8 10.9996H12V23.9996H8V10.9996ZM24 23.9996H20V10.9996H24V23.9996Z" fill="#141A39"/>
</svg>
