<svg width="24" height="24" viewBox="0 0 24 24" fill="none" xmlns="http://www.w3.org/2000/svg">
<path d="M0 12C0 5.37258 5.37258 0 12 0C18.6274 0 24 5.37258 24 12C24 18.6274 18.6274 24 12 24C5.37258 24 0 18.6274 0 12Z" fill="#EBEDFF"/>
<path d="M18.1875 7.5H6.84188L8.85563 5.48062L8.0625 4.6875L4.6875 8.0625L8.0625 11.4375L8.85563 10.6444L6.84188 8.625H18.1875V17.625H6.9375V13.6875H5.8125V17.625C5.8125 17.9234 5.93103 18.2095 6.142 18.4205C6.35298 18.6315 6.63913 18.75 6.9375 18.75H18.1875C18.4859 18.75 18.772 18.6315 18.983 18.4205C19.194 18.2095 19.3125 17.9234 19.3125 17.625V8.625C19.3125 8.32663 19.194 8.04048 18.983 7.8295C18.772 7.61853 18.4859 7.5 18.1875 7.5Z" fill="#5264FF"/>
</svg>
