<svg width="20" height="20" viewBox="0 0 20 20" fill="none" xmlns="http://www.w3.org/2000/svg">
<path d="M15 2.5H16.25V17.5H15V2.5ZM11.25 3.75V16.25H8.75V3.75H11.25ZM11.25 2.5H8.75C8.41848 2.5 8.10054 2.6317 7.86612 2.86612C7.6317 3.10054 7.5 3.41848 7.5 3.75V16.25C7.5 16.5815 7.6317 16.8995 7.86612 17.1339C8.10054 17.3683 8.41848 17.5 8.75 17.5H11.25C11.5815 17.5 11.8995 17.3683 12.1339 17.1339C12.3683 16.8995 12.5 16.5815 12.5 16.25V3.75C12.5 3.41848 12.3683 3.10054 12.1339 2.86612C11.8995 2.6317 11.5815 2.5 11.25 2.5ZM3.75 2.5H5V17.5H3.75V2.5Z" fill="black"/>
</svg>
