<svg width="32" height="33" viewBox="0 0 32 33" fill="none" xmlns="http://www.w3.org/2000/svg">
<path d="M28 6.93555H4C3.46957 6.93555 2.96086 7.14626 2.58579 7.52133C2.21071 7.89641 2 8.40511 2 8.93555V24.9355C2 25.466 2.21071 25.9747 2.58579 26.3498C2.96086 26.7248 3.46957 26.9355 4 26.9355H28C28.5304 26.9355 29.0391 26.7248 29.4142 26.3498C29.7893 25.9747 30 25.466 30 24.9355V8.93555C30 8.40511 29.7893 7.89641 29.4142 7.52133C29.0391 7.14626 28.5304 6.93555 28 6.93555V6.93555ZM28 8.93555V11.9355H4V8.93555H28ZM4 24.9355V13.9355H28V24.9355H4Z" fill="#141A39"/>
<path d="M6 20.9355H16V22.9355H6V20.9355Z" fill="#141A39"/>
</svg>
