<svg width="14" height="13" viewBox="0 0 14 13" fill="none" xmlns="http://www.w3.org/2000/svg">
<path d="M1.335 11.9991L4.53 5.01498L8.18 9.24407C8.29429 9.34561 8.43034 9.41959 8.5777 9.46033C8.72505 9.50107 8.87978 9.50748 9.03 9.47907C9.18159 9.45068 9.32455 9.38761 9.44772 9.2948C9.57089 9.20199 9.67092 9.08195 9.74 8.94407L12.5 2.51419L11.59 2.0642L8.845 8.49907L5.195 4.26998C5.0836 4.16638 4.95004 4.08957 4.80448 4.04538C4.65891 4.00119 4.50519 3.99079 4.355 4.01498C4.20668 4.03959 4.06582 4.09732 3.94289 4.18389C3.81997 4.27046 3.71815 4.38363 3.645 4.51498L1 10.4991V0.0234375H0L0 11.9991C0 12.2643 0.105357 12.5186 0.292893 12.7062C0.48043 12.8937 0.734784 12.9991 1 12.9991H14V11.9991H1.335Z" fill="#141A39"/>
</svg>
