<svg width="32" height="24" viewBox="0 0 32 24" fill="none" xmlns="http://www.w3.org/2000/svg">
<g clip-path="url(#clip0_2492_13800)">
<path fill-rule="evenodd" clip-rule="evenodd" d="M-2 0H34V24H-2V0Z" fill="white"/>
<path d="M16.0032 19.4614C20.1233 19.4614 23.4633 16.1213 23.4633 12.0012C23.4633 7.88105 20.1233 4.54102 16.0032 4.54102C11.883 4.54102 8.54297 7.88105 8.54297 12.0012C8.54297 16.1213 11.883 19.4614 16.0032 19.4614Z" fill="#D30000"/>
</g>
<path d="M4 0.5H28V-0.5H4V0.5ZM31.5 4V20H32.5V4H31.5ZM28 23.5H4V24.5H28V23.5ZM0.5 20V4H-0.5V20H0.5ZM4 23.5C2.067 23.5 0.5 21.933 0.5 20H-0.5C-0.5 22.4853 1.51472 24.5 4 24.5V23.5ZM31.5 20C31.5 21.933 29.933 23.5 28 23.5V24.5C30.4853 24.5 32.5 22.4853 32.5 20H31.5ZM28 0.5C29.933 0.5 31.5 2.067 31.5 4H32.5C32.5 1.51472 30.4853 -0.5 28 -0.5V0.5ZM4 -0.5C1.51472 -0.5 -0.5 1.51472 -0.5 4H0.5C0.5 2.067 2.067 0.5 4 0.5V-0.5Z" fill="#E6ECFA"/>
<defs>
<clipPath id="clip0_2492_13800">
<path d="M0 4C0 1.79086 1.79086 0 4 0H28C30.2091 0 32 1.79086 32 4V20C32 22.2091 30.2091 24 28 24H4C1.79086 24 0 22.2091 0 20V4Z" fill="white"/>
</clipPath>
</defs>
</svg>
