<svg width="32" height="33" viewBox="0 0 32 33" fill="none" xmlns="http://www.w3.org/2000/svg">
<path d="M22 4.93555H10C9.46973 4.93608 8.96133 5.14696 8.58637 5.52192C8.21141 5.89688 8.00053 6.40528 8 6.93555V28.9355C8.00053 29.4658 8.21141 29.9742 8.58637 30.3492C8.96133 30.7241 9.46973 30.935 10 30.9355H22C22.5302 30.9348 23.0384 30.7238 23.4133 30.3489C23.7882 29.974 23.9992 29.4657 24 28.9355V6.93555C23.9995 6.40528 23.7886 5.89688 23.4136 5.52192C23.0387 5.14696 22.5303 4.93608 22 4.93555ZM22 6.93555V8.93555H10V6.93555H22ZM10 28.9355V10.9355H22V28.9355H10Z" fill="#141A39"/>
</svg>
