<svg width="20" height="20" viewBox="0 0 20 20" fill="none" xmlns="http://www.w3.org/2000/svg">
<path d="M3.27473 14.0688L4.16848 13.1812C3.18987 12.3026 2.42097 11.2154 1.91848 10C3.18723 6.83125 6.68723 4.375 9.99973 4.375C10.8522 4.38625 11.6969 4.5383 12.4997 4.825L13.4685 3.85C12.3701 3.38583 11.192 3.13959 9.99973 3.125C7.96256 3.20161 5.99248 3.87347 4.33299 5.05755C2.67349 6.24164 1.39733 7.88603 0.662234 9.7875C0.612589 9.92482 0.612589 10.0752 0.662234 10.2125C1.21739 11.6856 2.1125 13.0069 3.27473 14.0688Z" fill="#141A39"/>
<path d="M7.50036 9.83142C7.54382 9.23249 7.80142 8.66921 8.22604 8.24459C8.65066 7.81997 9.21393 7.56238 9.81286 7.51892L10.9441 6.38142C10.3102 6.21451 9.64363 6.21667 9.01083 6.3877C8.37803 6.55873 7.80112 6.89265 7.33761 7.35616C6.8741 7.81967 6.54018 8.39659 6.36915 9.02939C6.19812 9.66219 6.19595 10.3288 6.36286 10.9627L7.50036 9.83142Z" fill="#141A39"/>
<path d="M19.3375 9.7875C18.6208 7.92075 17.3738 6.30439 15.75 5.1375L18.75 2.13125L17.8687 1.25L1.25 17.8687L2.13125 18.75L5.31875 15.5625C6.73992 16.3963 8.35253 16.8484 10 16.875C12.0372 16.7984 14.0073 16.1265 15.6667 14.9424C17.3262 13.7584 18.6024 12.114 19.3375 10.2125C19.3871 10.0752 19.3871 9.92482 19.3375 9.7875ZM12.5 10C12.4974 10.4376 12.3799 10.8668 12.1594 11.2447C11.9389 11.6227 11.6231 11.9361 11.2435 12.1538C10.8639 12.3714 10.4338 12.4856 9.99625 12.485C9.55868 12.4843 9.12894 12.3688 8.75 12.15L12.15 8.75C12.3747 9.12858 12.4954 9.55978 12.5 10ZM10 15.625C8.68879 15.6021 7.40243 15.2634 6.25 14.6375L7.8375 13.05C8.55959 13.551 9.43471 13.7825 10.3101 13.704C11.1855 13.6256 12.0055 13.2421 12.6269 12.6207C13.2484 11.9992 13.6318 11.1792 13.7103 10.3038C13.7888 9.42846 13.5573 8.55333 13.0562 7.83125L14.85 6.0375C16.2841 7.02186 17.4056 8.39714 18.0812 10C16.8125 13.1687 13.3125 15.625 10 15.625Z" fill="#141A39"/>
</svg>
