<svg width="24" height="24" viewBox="0 0 24 24" fill="none" xmlns="http://www.w3.org/2000/svg">
<path d="M0 12C0 5.37258 5.37258 0 12 0C18.6274 0 24 5.37258 24 12C24 18.6274 18.6274 24 12 24C5.37258 24 0 18.6274 0 12Z" fill="#EBEDFF"/>
<path d="M18.525 14.5875L16.5 16.6125V5.25H15.375V16.6125L13.35 14.5875L12.5625 15.375L15.9375 18.75L19.3125 15.375L18.525 14.5875ZM8.0625 5.25L4.6875 8.625L5.475 9.4125L7.5 7.3875V18.75H8.625V7.3875L10.65 9.4125L11.4375 8.625L8.0625 5.25Z" fill="#5264FF"/>
</svg>
