<svg width="32" height="33" viewBox="0 0 32 33" fill="none" xmlns="http://www.w3.org/2000/svg">
<path d="M28 4.93555H4C3.46957 4.93555 2.96086 5.14626 2.58579 5.52133C2.21071 5.89641 2 6.40511 2 6.93555V22.9355C2 23.466 2.21071 23.9747 2.58579 24.3498C2.96086 24.7248 3.46957 24.9355 4 24.9355H12V28.9355H8V30.9355H24V28.9355H20V24.9355H28C28.5304 24.9355 29.0391 24.7248 29.4142 24.3498C29.7893 23.9747 30 23.466 30 22.9355V6.93555C30 6.40511 29.7893 5.89641 29.4142 5.52133C29.0391 5.14626 28.5304 4.93555 28 4.93555ZM18 28.9355H14V24.9355H18V28.9355ZM28 22.9355H4V6.93555H28V22.9355Z" fill="#141A39"/>
</svg>
