<svg width="32" height="32" viewBox="0 0 32 32" fill="none" xmlns="http://www.w3.org/2000/svg">
<path d="M26 4.00977H6C5.46957 4.00977 4.96086 4.22048 4.58579 4.59555C4.21071 4.97062 4 5.47933 4 6.00977V26.0098C4 26.5402 4.21071 27.0489 4.58579 27.424C4.96086 27.7991 5.46957 28.0098 6 28.0098H26C26.5304 28.0098 27.0391 27.7991 27.4142 27.424C27.7893 27.0489 28 26.5402 28 26.0098V6.00977C28 5.47933 27.7893 4.97062 27.4142 4.59555C27.0391 4.22048 26.5304 4.00977 26 4.00977ZM26 6.00977V10.0098H6V6.00977H26ZM6 26.0098V12.0098H26V26.0098H6Z" fill="#141A39"/>
<path d="M10.7598 16.1795L13.5798 19.0095L10.7598 21.8395L12.1698 23.2495L16.4098 19.0095L12.1698 14.7695L10.7598 16.1795Z" fill="#141A39"/>
</svg>
