<svg width="32" height="33" viewBox="0 0 32 33" fill="none" xmlns="http://www.w3.org/2000/svg">
<path d="M10 10.9353H6.78C8.07335 8.94758 9.97441 7.43109 12.1998 6.61184C14.4252 5.79258 16.8558 5.71444 19.1292 6.38905C21.4027 7.06366 23.3972 8.4549 24.8156 10.3554C26.2339 12.2559 27.0002 14.5638 27 16.9353H29C29.0028 14.2608 28.1805 11.6505 26.6455 9.46037C25.1104 7.27026 22.9372 5.60691 20.4222 4.69713C17.9072 3.78735 15.1727 3.67542 12.5918 4.3766C10.0108 5.07778 7.70893 6.55794 6 8.61526V4.93526H4V12.9353H10V10.9353Z" fill="#141A39"/>
<path d="M22 22.9355H25.22C23.9267 24.9232 22.0256 26.4397 19.8002 27.259C17.5748 28.0782 15.1442 28.1564 12.8708 27.4818C10.5973 26.8072 8.60278 25.4159 7.18443 23.5154C5.76607 21.6149 4.99986 19.307 5.00001 16.9355H3.00001C2.99725 19.6101 3.81947 22.2203 5.35454 24.4104C6.88961 26.6005 9.06281 28.2639 11.5778 29.1737C14.0928 30.0835 16.8273 30.1954 19.4082 29.4942C21.9892 28.793 24.2911 27.3129 26 25.2555V28.9355H28V20.9355H22V22.9355Z" fill="#141A39"/>
<path d="M19.3337 14.2689V12.9355H16.667V10.9355H15.3337V12.9355H14.0003C13.6468 12.9359 13.3079 13.0765 13.0579 13.3265C12.8079 13.5764 12.6673 13.9154 12.667 14.2689V16.2689C12.6673 16.6224 12.8079 16.9613 13.0579 17.2113C13.3079 17.4613 13.6468 17.6019 14.0003 17.6022H18.0003V19.6022H12.667V20.9355H15.3337V22.9355H16.667V20.9355H18.0003C18.3538 20.9352 18.6928 20.7946 18.9427 20.5446C19.1927 20.2947 19.3333 19.9557 19.3337 19.6022V17.6022C19.3333 17.2487 19.1927 16.9098 18.9427 16.6598C18.6928 16.4098 18.3538 16.2692 18.0003 16.2689H14.0003V14.2689H19.3337Z" fill="#141A39"/>
</svg>
