<svg width="32" height="24" viewBox="0 0 32 24" fill="none" xmlns="http://www.w3.org/2000/svg">
<g clip-path="url(#clip0_2492_11270)">
<g clip-path="url(#clip1_2492_11270)">
<path fill-rule="evenodd" clip-rule="evenodd" d="M-1.06641 0H47.5736V1.84688H-1.06641V0ZM-1.06641 3.69375H47.5736V5.54062H-1.06641V3.69375ZM-1.06641 7.38281H47.5736V9.23438H-1.06641V7.38281ZM-1.06641 11.0766H47.5736V12.9234H-1.06641V11.0766ZM-1.06641 14.7703H47.5736V16.6172H-1.06641V14.7703ZM-1.06641 18.4594H47.5736V20.3063H-1.06641V18.4594ZM-1.06641 22.1531H47.5736V24H-1.06641V22.1531Z" fill="#BD3D44"/>
<path fill-rule="evenodd" clip-rule="evenodd" d="M-1.06641 1.84766H47.5736V3.69453H-1.06641V1.84766ZM-1.06641 5.54141H47.5736V7.38359H-1.06641V5.54141ZM-1.06641 9.23047H47.5736V11.0773H-1.06641V9.23047ZM-1.06641 12.9242H47.5736V14.7711H-1.06641V12.9242ZM-1.06641 16.618H47.5736V18.4648H-1.06641V16.618ZM-1.06641 20.307H47.5736V22.1539H-1.06641V20.307Z" fill="white"/>
<path fill-rule="evenodd" clip-rule="evenodd" d="M-1.06641 0H18.3886V12.9234H-1.06641V0Z" fill="#192F5D"/>
<path fill-rule="evenodd" clip-rule="evenodd" d="M0.553711 0.552734L0.733711 1.06367H1.30371L0.843711 1.37773L1.01871 1.89336L0.553711 1.57461L0.093711 1.88867L0.268711 1.37773L-0.196289 1.06367H0.383711L0.553711 0.552734ZM3.79871 0.552734L3.97371 1.06367H4.54871L4.08371 1.37773L4.25871 1.89336L3.79871 1.57461L3.33371 1.88867L3.50871 1.37773L3.04871 1.06367H3.61871L3.79871 0.552734ZM7.03871 0.552734L7.21871 1.06367H7.78371L7.32371 1.37773L7.49871 1.89336L7.03371 1.57461L6.57371 1.88867L6.74871 1.37773L6.28371 1.06367H6.85871L7.03871 0.552734ZM10.2837 0.552734L10.4587 1.06367H11.0337L10.5687 1.37773L10.7487 1.89336L10.2837 1.57461L9.81871 1.88867L9.99871 1.37773L9.53371 1.06367H10.1037L10.2837 0.552734ZM13.5237 0.552734L13.7037 1.06367H14.2737L13.8137 1.37773L13.9887 1.89336L13.5237 1.57461L13.0637 1.88867L13.2387 1.37773L12.7787 1.06367H13.3487L13.5237 0.552734ZM16.7687 0.552734L16.9437 1.06367H17.5187L17.0537 1.37773L17.2337 1.89336L16.7687 1.57461L16.3037 1.88867L16.4837 1.37773L16.0187 1.06367H16.5937L16.7687 0.552734ZM2.17871 1.84648L2.35371 2.35742H2.92871L2.46371 2.67148L2.63371 3.18242L2.18371 2.86836L1.71871 3.18242L1.88371 2.67148L1.43371 2.35742H2.00371L2.17871 1.84648ZM5.41871 1.84648L5.59871 2.35742H6.16871L5.70371 2.67148L5.88371 3.18242L5.41871 2.86836L4.95371 3.18242L5.13371 2.67148L4.66871 2.35742H5.24371L5.41871 1.84648ZM8.66371 1.84648L8.83871 2.35742H9.41371L8.94871 2.67148L9.12371 3.18242L8.66371 2.86836L8.19871 3.18242L8.37371 2.67148L7.91371 2.35742H8.48371L8.66371 1.84648ZM11.9037 1.84648L12.0837 2.35742H12.6537L12.1887 2.67148L12.3687 3.18242L11.9037 2.86836L11.4437 3.18242L11.6187 2.67148L11.1537 2.35742H11.7337L11.9037 1.84648ZM15.1487 1.84648L15.3237 2.35742H15.8987L15.4337 2.67148L15.6087 3.18242L15.1487 2.86836L14.6837 3.18242L14.8587 2.67148L14.3987 2.35742H14.9687L15.1487 1.84648ZM0.553711 3.13555L0.733711 3.65586H1.30371L0.843711 3.96992L1.01871 4.48086L0.553711 4.16211L0.093711 4.48086L0.268711 3.96523L-0.196289 3.65117H0.383711L0.553711 3.13555ZM3.79871 3.13555L3.97371 3.65117H4.54871L4.08371 3.96523L4.25871 4.47617L3.79871 4.15742L3.33371 4.47617L3.50871 3.96055L3.04871 3.64648H3.61871L3.79871 3.13555ZM7.03871 3.13555L7.21871 3.65117H7.78371L7.32371 3.96523L7.49871 4.47617L7.03371 4.15742L6.57371 4.47617L6.74871 3.96055L6.28371 3.64648H6.85871L7.03871 3.13555ZM10.2837 3.13555L10.4587 3.65117H11.0337L10.5687 3.96523L10.7487 4.47617L10.2837 4.15742L9.81871 4.47617L9.99871 3.96055L9.53371 3.64648H10.1037L10.2837 3.13555ZM13.5237 3.13555L13.7037 3.65117H14.2737L13.8137 3.96523L13.9887 4.47617L13.5237 4.15742L13.0637 4.47617L13.2387 3.96055L12.7787 3.64648H13.3487L13.5237 3.13555ZM16.7687 3.13555L16.9437 3.65117H17.5187L17.0537 3.96523L17.2337 4.47617L16.7687 4.15742L16.3037 4.47617L16.4837 3.96055L16.0187 3.64648H16.5937L16.7687 3.13555ZM2.17871 4.42929L2.35371 4.94023H2.92871L2.46371 5.25429L2.63871 5.76992L2.17871 5.45117L1.71371 5.76523L1.88871 5.25429L1.42871 4.94023H1.99871L2.17871 4.42929ZM5.41871 4.42929L5.59871 4.94023H6.16871L5.70371 5.25429L5.88371 5.76992L5.41871 5.45117L4.95371 5.76523L5.13371 5.25429L4.66871 4.94023H5.24371L5.41871 4.42929ZM8.66371 4.42929L8.83871 4.94023H9.41371L8.94871 5.25429L9.12371 5.76992L8.66371 5.45117L8.19871 5.76523L8.37371 5.25429L7.91371 4.94023H8.48371L8.66371 4.42929ZM11.9037 4.42929L12.0837 4.94023H12.6537L12.1937 5.25429L12.3687 5.76992L11.9037 5.45117L11.4437 5.76523L11.6187 5.25429L11.1537 4.94023H11.7337L11.9037 4.42929ZM15.1487 4.42929L15.3237 4.94023H15.8987L15.4337 5.25429L15.6087 5.76992L15.1487 5.45117L14.6837 5.76523L14.8587 5.25429L14.3987 4.94023H14.9687L15.1487 4.42929ZM0.553711 5.72304L0.733711 6.23398H1.30371L0.843711 6.54804L1.01871 7.06367L0.553711 6.74492L0.093711 7.05898L0.268711 6.54804L-0.196289 6.23398H0.383711L0.553711 5.72304ZM3.79871 5.72304L3.97371 6.23398H4.54871L4.08371 6.54804L4.25871 7.05898L3.79871 6.74492L3.33371 7.05898L3.50871 6.54804L3.04871 6.23398H3.61871L3.79871 5.72304ZM7.03871 5.72304L7.21871 6.23398H7.78371L7.32371 6.54804L7.49871 7.06367L7.03371 6.74492L6.57371 7.05898L6.74871 6.54804L6.28371 6.23398H6.85871L7.03871 5.72304ZM10.2837 5.72304L10.4587 6.23398H11.0337L10.5687 6.54804L10.7487 7.06367L10.2837 6.74492L9.81871 7.05898L9.99871 6.54804L9.53371 6.23398H10.1037L10.2837 5.72304ZM13.5237 5.72304L13.7037 6.23398H14.2737L13.8137 6.54804L13.9887 7.06367L13.5237 6.74492L13.0637 7.05898L13.2387 6.54804L12.7787 6.23398H13.3487L13.5237 5.72304ZM16.7687 5.72304L16.9437 6.23398H17.5187L17.0537 6.54804L17.2337 7.06367L16.7687 6.74492L16.3037 7.05898L16.4837 6.54804L16.0187 6.23398H16.5937L16.7687 5.72304ZM2.17871 7.01679L2.35371 7.52773H2.92871L2.46371 7.84179L2.63871 8.35273L2.17871 8.03398L1.71371 8.35273L1.88871 7.83711L1.42871 7.52304H1.99871L2.17871 7.01679ZM5.41871 7.01679L5.59871 7.52773H6.16871L5.70371 7.84179L5.88371 8.35273L5.41871 8.03398L4.95371 8.35273L5.13371 7.83711L4.66871 7.52304H5.24371L5.41871 7.01679ZM8.66371 7.01679L8.83871 7.52773H9.41371L8.94871 7.84179L9.12371 8.35273L8.66371 8.03398L8.19871 8.35273L8.37371 7.83711L7.91371 7.52304H8.48371L8.66371 7.01679ZM11.9037 7.01679L12.0837 7.52773H12.6537L12.1937 7.84179L12.3687 8.35273L11.9037 8.03398L11.4437 8.35273L11.6187 7.83711L11.1537 7.52304H11.7337L11.9037 7.01679ZM15.1487 7.01679L15.3237 7.52773H15.8987L15.4337 7.84179L15.6087 8.35273L15.1487 8.03398L14.6837 8.35273L14.8587 7.83711L14.3987 7.52304H14.9687L15.1487 7.01679ZM0.553711 8.30586L0.733711 8.82148H1.30371L0.843711 9.13554L1.01871 9.64179L0.553711 9.32773L0.093711 9.64179L0.268711 9.13086L-0.196289 8.81679H0.383711L0.553711 8.30586ZM3.79871 8.30586L3.97371 8.82148H4.54871L4.08371 9.13554L4.26371 9.64179L3.79871 9.32773L3.33371 9.64179L3.51371 9.13086L3.04871 8.81679H3.61871L3.79871 8.30586ZM7.03871 8.30586L7.21871 8.82148H7.78371L7.32371 9.13554L7.49871 9.64179L7.03371 9.32773L6.57371 9.64179L6.74871 9.13086L6.28371 8.81679H6.85871L7.03871 8.30586ZM10.2837 8.30586L10.4587 8.82148H11.0337L10.5687 9.13554L10.7487 9.64179L10.2837 9.32773L9.81871 9.64179L9.99871 9.13086L9.53371 8.81679H10.1037L10.2837 8.30586ZM13.5237 8.30586L13.7037 8.82148H14.2737L13.8137 9.13554L13.9887 9.64179L13.5237 9.32773L13.0637 9.64179L13.2387 9.13086L12.7787 8.81679H13.3487L13.5237 8.30586ZM16.7687 8.30586L16.9437 8.82148H17.5187L17.0537 9.13554L17.2337 9.64179L16.7687 9.32773L16.3037 9.64179L16.4837 9.13086L16.0187 8.81679H16.5937L16.7687 8.30586ZM2.17871 9.5996L2.35371 10.1105H2.92871L2.46371 10.4246L2.63871 10.9402L2.17871 10.6215L1.71371 10.9355L1.88871 10.4246L1.42871 10.1105H1.99871L2.17871 9.5996ZM5.41871 9.5996L5.59871 10.1105H6.16871L5.70371 10.4246L5.88371 10.9402L5.41871 10.6215L4.95371 10.9355L5.13371 10.4246L4.66871 10.1105H5.24371L5.41871 9.5996ZM8.66371 9.5996L8.83871 10.1105H9.41371L8.94871 10.4246L9.12371 10.9402L8.66371 10.6215L8.19871 10.9355L8.37371 10.4246L7.91371 10.1105H8.48371L8.66371 9.5996ZM11.9037 9.5996L12.0837 10.1105H12.6537L12.1937 10.4246L12.3687 10.9402L11.9037 10.6215L11.4437 10.9355L11.6187 10.4246L11.1537 10.1105H11.7337L11.9037 9.5996ZM15.1487 9.5996L15.3237 10.1105H15.8987L15.4337 10.4246L15.6087 10.9402L15.1487 10.6215L14.6837 10.9355L14.8587 10.4246L14.3987 10.1105H14.9687L15.1487 9.5996ZM0.553711 10.8934L0.733711 11.4043H1.30371L0.843711 11.7184L1.01871 12.2293L0.553711 11.9152L0.093711 12.2293L0.268711 11.7137L-0.196289 11.3996H0.383711L0.553711 10.8934ZM3.79871 10.8934L3.97371 11.4043H4.54871L4.08371 11.7184L4.26371 12.2293L3.79871 11.9152L3.33371 12.2293L3.51371 11.7137L3.04871 11.3996H3.61871L3.79871 10.8934ZM7.03871 10.8934L7.21871 11.4043H7.78371L7.33371 11.7184L7.50871 12.2293L7.04371 11.9152L6.58371 12.2293L6.75871 11.7137L6.29371 11.3996H6.86871L7.03871 10.8934ZM10.2837 10.8934L10.4587 11.4043H11.0337L10.5687 11.7184L10.7487 12.2293L10.2837 11.9152L9.81871 12.2293L9.99871 11.7137L9.53371 11.3996H10.1037L10.2837 10.8934ZM13.5237 10.8934L13.7037 11.4043H14.2737L13.8137 11.7184L13.9887 12.2293L13.5237 11.9152L13.0637 12.2293L13.2387 11.7137L12.7787 11.3996H13.3487L13.5237 10.8934ZM16.7687 10.8934L16.9437 11.4043H17.5187L17.0537 11.7184L17.2337 12.2293L16.7687 11.9152L16.3037 12.2293L16.4837 11.7137L16.0187 11.3996H16.5937L16.7687 10.8934Z" fill="white"/>
</g>
</g>
<defs>
<clipPath id="clip0_2492_11270">
<path d="M0 4C0 1.79086 1.79086 0 4 0H28C30.2091 0 32 1.79086 32 4V20C32 22.2091 30.2091 24 28 24H4C1.79086 24 0 22.2091 0 20V4Z" fill="white"/>
</clipPath>
<clipPath id="clip1_2492_11270">
<rect width="34.1333" height="24" fill="white" transform="translate(-1.06641)"/>
</clipPath>
</defs>
</svg>
